<svg width="30" height="29" viewBox="0 0 30 29" fill="none" xmlns="http://www.w3.org/2000/svg">
<path d="M14.996 7.0601C10.7369 7.0601 7.29966 10.3828 7.29966 14.5C7.29966 18.6172 10.7369 21.9399 14.996 21.9399C19.255 21.9399 22.6923 18.6172 22.6923 14.5C22.6923 10.3828 19.255 7.0601 14.996 7.0601ZM14.996 19.3354C12.2417 19.3354 9.99393 17.1625 9.99393 14.5C9.99393 11.8375 12.2417 9.66461 14.996 9.66461C17.7503 9.66461 19.998 11.8375 19.998 14.5C19.998 17.1625 17.7503 19.3354 14.996 19.3354ZM23.0075 5.02147C22.0131 5.02147 21.2101 5.79775 21.2101 6.75902C21.2101 7.72029 22.0131 8.49657 23.0075 8.49657C24.0019 8.49657 24.8049 7.72392 24.8049 6.75902C24.8052 6.53076 24.7589 6.30469 24.6687 6.09375C24.5785 5.88281 24.4461 5.69115 24.2791 5.52975C24.1122 5.36834 23.9139 5.24037 23.6957 5.15315C23.4775 5.06593 23.2436 5.02118 23.0075 5.02147ZM29.9983 14.5C29.9983 12.4976 30.0171 10.5134 29.9008 8.51471C29.7844 6.19314 29.2366 4.13275 27.4804 2.4351C25.7205 0.733824 23.5929 0.207844 21.1913 0.0953926C19.1199 -0.0170583 17.0673 0.00107896 14.9997 0.00107896C12.9284 0.00107896 10.8758 -0.0170583 8.80815 0.0953926C6.40658 0.207844 4.27517 0.737451 2.51902 2.4351C0.759114 4.13637 0.215007 6.19314 0.0986802 8.51471C-0.0176462 10.5171 0.00111615 12.5013 0.00111615 14.5C0.00111615 16.4987 -0.0176462 18.4866 0.0986802 20.4853C0.215007 22.8069 0.762867 24.8673 2.51902 26.5649C4.27893 28.2662 6.40658 28.7922 8.80815 28.9046C10.8795 29.0171 12.9321 28.9989 14.9997 28.9989C17.0711 28.9989 19.1237 29.0171 21.1913 28.9046C23.5929 28.7922 25.7243 28.2625 27.4804 26.5649C29.2403 24.8636 29.7844 22.8069 29.9008 20.4853C30.0208 18.4866 29.9983 16.5024 29.9983 14.5ZM26.6962 23.0535C26.4222 23.7137 26.092 24.2071 25.5629 24.7149C25.0338 25.2264 24.5272 25.5456 23.8443 25.8104C21.8705 26.5685 17.1837 26.398 14.996 26.398C12.8083 26.398 8.1177 26.5685 6.1439 25.814C5.46095 25.5492 4.95062 25.23 4.42527 24.7185C3.89618 24.2071 3.56596 23.7174 3.29203 23.0572C2.51152 21.1455 2.68788 16.6148 2.68788 14.5C2.68788 12.3852 2.51152 7.85088 3.29203 5.94284C3.56596 5.28265 3.89618 4.78931 4.42527 4.28147C4.95437 3.77363 5.46095 3.45078 6.1439 3.18598C8.1177 2.43147 12.8083 2.60196 14.996 2.60196C17.1837 2.60196 21.8742 2.43147 23.848 3.18598C24.531 3.45078 25.0413 3.77 25.5667 4.28147C26.0958 4.79294 26.426 5.28265 26.6999 5.94284C27.4804 7.85088 27.3041 12.3852 27.3041 14.5C27.3041 16.6148 27.4804 21.1455 26.6962 23.0535Z" fill="white"/>
</svg>
