<svg width="42" height="37" viewBox="0 0 42 37" fill="none" xmlns="http://www.w3.org/2000/svg">
<path d="M35.0875 16.9583H6.9125C5.99433 16.9583 5.25 17.614 5.25 18.4229V18.5771C5.25 19.3859 5.99433 20.0416 6.9125 20.0416H35.0875C36.0057 20.0416 36.75 19.3859 36.75 18.5771V18.4229C36.75 17.614 36.0057 16.9583 35.0875 16.9583Z" fill="#414141"/>
<path d="M35.0875 24.6667H6.9125C5.99433 24.6667 5.25 25.3224 5.25 26.1313V26.2854C5.25 27.0943 5.99433 27.75 6.9125 27.75H35.0875C36.0057 27.75 36.75 27.0943 36.75 26.2854V26.1313C36.75 25.3224 36.0057 24.6667 35.0875 24.6667Z" fill="#414141"/>
<path d="M35.0875 9.25H6.9125C5.99433 9.25 5.25 9.90572 5.25 10.7146V10.8688C5.25 11.6776 5.99433 12.3333 6.9125 12.3333H35.0875C36.0057 12.3333 36.75 11.6776 36.75 10.8688V10.7146C36.75 9.90572 36.0057 9.25 35.0875 9.25Z" fill="#414141"/>
</svg>
