<svg width="35" height="27" viewBox="0 0 35 27" fill="none" xmlns="http://www.w3.org/2000/svg">
<path d="M35 3.20726C33.7129 3.73448 32.3122 4.11392 30.8695 4.2617C32.3674 3.4167 33.4891 2.08173 34.0242 0.507265C32.6186 1.30124 31.0788 1.858 29.473 2.15283C28.8019 1.47154 27.9902 0.928799 27.0885 0.558419C26.1868 0.188038 25.2145 -0.00204411 24.2321 1.6577e-05C20.2572 1.6577e-05 17.0604 3.05948 17.0604 6.81392C17.0604 7.34114 17.1278 7.86836 17.2371 8.3756C11.2853 8.08004 5.97705 5.38004 2.44802 1.24617C1.805 2.28909 1.46803 3.47657 1.47218 4.68507C1.47218 7.04957 2.73825 9.13448 4.66891 10.3607C3.53114 10.3181 2.42002 10.0212 1.42591 9.49395V9.57782C1.42591 12.8889 3.89076 15.6328 7.17582 16.2639C6.55901 16.416 5.9245 16.4939 5.28723 16.4956C4.82033 16.4956 4.37868 16.4516 3.93282 16.3917C4.84136 19.0917 7.48708 21.0528 10.6375 21.1167C8.1727 22.95 5.08533 24.0284 1.73296 24.0284C1.13147 24.0284 0.576253 24.0084 0 23.9445C3.17991 25.8817 6.95289 27 11.0161 27C24.2068 27 31.4247 16.6234 31.4247 7.61673C31.4247 7.32117 31.4247 7.0256 31.4037 6.73004C32.8001 5.75948 34.0242 4.55726 35 3.20726Z" fill="white"/>
</svg>
